<svg xmlns="http://www.w3.org/2000/svg" xmlns:xlink="http://www.w3.org/1999/xlink" x="0" y="0" width="702" height="676" style="
        width:702px;
        height:676px;
        background: transparent;
        fill: none;
">
        <svg xmlns="http://www.w3.org/2000/svg"/>
        
        <svg xmlns="http://www.w3.org/2000/svg" class="role-diagram-draw-area" style="overflow: visible;"><g class="shapes-region" style="stroke: black; fill: none;"><g class="composite-shape"><path class="real" d=" M43.03,8 L216.96,8 L216.96,48 L43.03,48 Z" style="stroke-width: 1px; stroke: rgb(0, 0, 0); fill: none; fill-opacity: 1;"/></g><g class="composite-shape"><path class="real" d=" M43.03,48 L216.96,48 L216.96,113 L43.03,113 Z" style="stroke-width: 1px; stroke: rgb(0, 0, 0); fill: none; fill-opacity: 1;"/></g><g class="composite-shape"><path class="real" d=" M58.74,67 C58.74,62.03 62.77,58 67.74,58 L192.25,58 C197.22,58 201.25,62.03 201.25,67 L201.25,94 C201.25,98.97 197.22,103 192.25,103 L67.74,103 C62.77,103 58.74,98.97 58.74,94 Z" style="stroke-width: 1px; stroke: rgb(74, 144, 226); stroke-opacity: 1; fill: rgb(74, 144, 226); fill-opacity: 0.37;"/></g><g class="composite-shape"><path class="real" d=" M43.03,113 L216.96,113 L216.96,153 L43.03,153 Z" style="stroke-width: 1px; stroke: rgb(65, 117, 5); stroke-opacity: 1; fill: rgb(126, 211, 33); fill-opacity: 0.13;"/></g><g class="composite-shape"><path class="real" d=" M43.03,153 L216.96,153 L216.96,184 L43.03,184 Z" style="stroke-width: 1px; stroke: rgb(0, 0, 0); fill: none; fill-opacity: 1;"/></g><g class="composite-shape"><path class="real" d=" M280.93,155 L454.86,155 L454.86,195 L280.93,195 Z" style="stroke-width: 1px; stroke: rgb(0, 0, 0); fill: none; fill-opacity: 1;"/></g><g class="composite-shape"><path class="real" d=" M280.93,195 L454.86,195 L454.86,260 L280.93,260 Z" style="stroke-width: 1px; stroke: rgb(0, 0, 0); fill: none; fill-opacity: 1;"/></g><g class="composite-shape"><path class="real" d=" M296.64,214 C296.64,209.03 300.67,205 305.64,205 L430.15,205 C435.12,205 439.15,209.03 439.15,214 L439.15,241 C439.15,245.97 435.12,250 430.15,250 L305.64,250 C300.67,250 296.64,245.97 296.64,241 Z" style="stroke-width: 1px; stroke: rgb(74, 144, 226); stroke-opacity: 1; fill: rgb(74, 144, 226); fill-opacity: 0.37;"/></g><g class="composite-shape"><path class="real" d=" M280.93,260 L454.86,260 L454.86,300 L280.93,300 Z" style="stroke-width: 1px; stroke: rgb(65, 117, 5); stroke-opacity: 1; fill: rgb(126, 211, 33); fill-opacity: 0.13;"/></g><g class="composite-shape"><path class="real" d=" M280.93,300 L454.86,300 L454.86,331 L280.93,331 Z" style="stroke-width: 1px; stroke: rgb(0, 0, 0); fill: none; fill-opacity: 1;"/></g><g class="composite-shape"><path class="real" d=" M521.07,304 L695,304 L695,344 L521.07,344 Z" style="stroke-width: 1px; stroke: rgb(0, 0, 0); fill: none; fill-opacity: 1;"/></g><g class="composite-shape"><path class="real" d=" M521.07,344 L695,344 L695,409 L521.07,409 Z" style="stroke-width: 1px; stroke: rgb(0, 0, 0); fill: none; fill-opacity: 1;"/></g><g class="composite-shape"><path class="real" d=" M536.78,363 C536.78,358.03 540.81,354 545.78,354 L670.29,354 C675.26,354 679.29,358.03 679.29,363 L679.29,390 C679.29,394.97 675.26,399 670.29,399 L545.78,399 C540.81,399 536.78,394.97 536.78,390 Z" style="stroke-width: 1px; stroke: rgb(74, 144, 226); stroke-opacity: 1; fill: rgb(74, 144, 226); fill-opacity: 0.37;"/></g><g class="composite-shape"><path class="real" d=" M521.07,409 L695,409 L695,440 L521.07,440 Z" style="stroke-width: 1px; stroke: rgb(0, 0, 0); fill: none; fill-opacity: 1;"/></g><g class="composite-shape"><path class="real" d=" M279.92,223.5 L128,224.19 L127.85,196.92 L138.7,196.87 L125.54,184.21 L112.52,196.99 L123.36,196.94 L123.54,228.7 L279.94,227.99 Z" style="stroke-width: 1px; stroke: rgb(0, 0, 0); stroke-opacity: 0; fill: rgb(30, 114, 212); fill-opacity: 0.45;"/></g><g class="composite-shape"><path class="real" d=" M218.09,132 L362.69,132 L362.69,143 L354.19,143 L364.69,155 L375.19,143 L366.69,143 L366.69,128 L218.09,128 Z" style="stroke-width: 1px; stroke: rgb(0, 0, 0); stroke-opacity: 0; fill: rgb(184, 233, 134); fill-opacity: 1;"/></g><g class="composite-shape"><path class="real" d=" M455.98,281 L600.58,281 L600.58,292 L592.08,292 L602.58,304 L613.08,292 L604.58,292 L604.58,277 L455.98,277 Z" style="stroke-width: 1px; stroke: rgb(0, 0, 0); stroke-opacity: 0; fill: rgb(184, 233, 134); fill-opacity: 1;"/></g><g class="composite-shape"><path class="real" d=" M520.06,372.5 L368.14,373.19 L367.99,345.92 L378.84,345.87 L365.68,333.21 L352.66,345.99 L363.5,345.94 L363.68,377.7 L520.08,376.99 Z" style="stroke-width: 1px; stroke: rgb(0, 0, 0); stroke-opacity: 0; fill: rgb(30, 114, 212); fill-opacity: 0.45;"/></g><g class="composite-shape"><path class="real" d=" M6,327 C6,322.03 10.03,318 15,318 L139.51,318 C144.48,318 148.51,322.03 148.51,327 L148.51,354 C148.51,358.97 144.48,363 139.51,363 L15,363 C10.03,363 6,358.97 6,354 Z" style="stroke-width: 1px; stroke: rgb(248, 231, 28); stroke-opacity: 1; fill: rgb(248, 231, 28); fill-opacity: 0.23;"/></g><g class="composite-shape"><path class="real" d=" M62.11,207.29 L74.45,187 L86.79,207.29 L74.45,207.29 L74.45,315 L74.45,315 L74.45,207.29 Z" style="stroke-width: 1px; stroke: rgb(245, 166, 35); stroke-opacity: 1; fill: none; fill-opacity: 1; stroke-dasharray: 1.125px, 3.35px;"/></g><g class="composite-shape"><path class="real" d=" M248.38,473 C248.38,468.03 252.41,464 257.38,464 L381.9,464 C386.87,464 390.9,468.03 390.9,473 L390.9,500 C390.9,504.97 386.87,509 381.9,509 L257.38,509 C252.41,509 248.38,504.97 248.38,500 Z" style="stroke-width: 1px; stroke: rgb(248, 231, 28); stroke-opacity: 1; fill: rgb(248, 231, 28); fill-opacity: 0.23;"/></g><g class="composite-shape"><path class="real" d=" M304.49,353.29 L316.84,333 L329.18,353.29 L316.84,353.29 L316.84,461 L316.84,461 L316.84,353.29 Z" style="stroke-width: 1px; stroke: rgb(245, 166, 35); stroke-opacity: 1; fill: none; fill-opacity: 1; stroke-dasharray: 1.125px, 3.35px;"/></g><g class="composite-shape"><path class="real" d=" M393.14,485 L608.69,485 L608.69,461.5 L598.69,461.5 L608.69,442.5 L618.69,461.5 L608.69,461.5 L608.69,485 L393.14,485 Z" style="stroke-width: 1px; stroke: rgb(245, 166, 35); fill: none; fill-opacity: 1; stroke-opacity: 1; stroke-dasharray: 1.125px, 3.35px;"/></g><g/></g><g/><g/><g/></svg>
        <svg xmlns="http://www.w3.org/2000/svg" xmlns:xlink="http://www.w3.org/1999/xlink" width="700" height="674" style="width:700px;height:674px;font-family:Asana-Math, Asana;background:transparent;"><g><g><g><text x="60.578125" y="20" style="white-space:pre;stroke:none;fill:rgb(0,0,0);fill-opacity:1;font-size:15px;font-family:Arial, Helvetica, sans-serif;font-weight:normal;font-style:normal;dominant-baseline:text-before-edge;text-decoration:none;">Vlasnički identifikator</text></g></g></g><g><g><g><text x="59.8125" y="70" style="white-space:pre;stroke:none;fill:rgb(0,0,0);fill-opacity:1;font-size:15px;font-family:Arial, Helvetica, sans-serif;font-weight:normal;font-style:normal;dominant-baseline:text-before-edge;text-decoration:none;">Vlasnikov javni ključ</text></g></g></g><g><g><g><text x="56.5" y="125" style="white-space:pre;stroke:none;fill:rgb(0,0,0);fill-opacity:1;font-size:15px;font-family:Arial, Helvetica, sans-serif;font-weight:normal;font-style:normal;dominant-baseline:text-before-edge;text-decoration:none;">Izdavačev identifikator</text></g></g></g><g><g><g><text x="74.65625" y="160" style="white-space:pre;stroke:none;fill:rgb(0,0,0);fill-opacity:1;font-size:15px;font-family:Arial, Helvetica, sans-serif;font-weight:normal;font-style:normal;dominant-baseline:text-before-edge;text-decoration:none;">Izdavačev potpis</text></g></g></g><g><g><g><text x="294.40625" y="166" style="white-space:pre;stroke:none;fill:rgb(0,0,0);fill-opacity:1;font-size:15px;font-family:Arial, Helvetica, sans-serif;font-weight:normal;font-style:normal;dominant-baseline:text-before-edge;text-decoration:none;">Izdavačev identifikator</text></g></g></g><g><g><g><text x="297.8125" y="217" style="white-space:pre;stroke:none;fill:rgb(0,0,0);fill-opacity:1;font-size:15px;font-family:Arial, Helvetica, sans-serif;font-weight:normal;font-style:normal;dominant-baseline:text-before-edge;text-decoration:none;">Izdavačev javni ključ</text></g></g></g><g><g><g><text x="294.28125" y="272" style="white-space:pre;stroke:none;fill:rgb(0,0,0);fill-opacity:1;font-size:15px;font-family:Arial, Helvetica, sans-serif;font-weight:normal;font-style:normal;dominant-baseline:text-before-edge;text-decoration:none;">Korijenski identifikator</text></g></g></g><g><g><g><text x="311.25" y="307" style="white-space:pre;stroke:none;fill:rgb(0,0,0);fill-opacity:1;font-size:15px;font-family:Arial, Helvetica, sans-serif;font-weight:normal;font-style:normal;dominant-baseline:text-before-edge;text-decoration:none;">Korijenski potpis</text></g></g></g><g><g><g><text x="534.421875" y="317" style="white-space:pre;stroke:none;fill:rgb(0,0,0);fill-opacity:1;font-size:15px;font-family:Arial, Helvetica, sans-serif;font-weight:normal;font-style:normal;dominant-baseline:text-before-edge;text-decoration:none;">Korijenski identifikator</text></g></g></g><g><g><g><text x="538" y="366" style="white-space:pre;stroke:none;fill:rgb(0,0,0);fill-opacity:1;font-size:15px;font-family:Arial, Helvetica, sans-serif;font-weight:normal;font-style:normal;dominant-baseline:text-before-edge;text-decoration:none;">Korijenski javni ključ</text></g></g></g><g><g><g><text x="552.515625" y="416" style="white-space:pre;stroke:none;fill:rgb(0,0,0);fill-opacity:1;font-size:15px;font-family:Arial, Helvetica, sans-serif;font-weight:normal;font-style:normal;dominant-baseline:text-before-edge;text-decoration:none;">Korijenski potpis</text></g></g></g><g><g><g><text x="155.234375" y="235" style="white-space:pre;stroke:none;fill:rgb(0,0,0);fill-opacity:1;font-size:15px;font-family:Arial, Helvetica, sans-serif;font-weight:normal;font-style:normal;dominant-baseline:text-before-edge;text-decoration:none;">Verifikacija</text></g></g></g><g><g><g><text x="405.484375" y="384" style="white-space:pre;stroke:none;fill:rgb(0,0,0);fill-opacity:1;font-size:15px;font-family:Arial, Helvetica, sans-serif;font-weight:normal;font-style:normal;dominant-baseline:text-before-edge;text-decoration:none;">Verifikacija</text></g></g></g><g><g><g><text x="259.4375" y="106" style="white-space:pre;stroke:none;fill:rgb(0,0,0);fill-opacity:1;font-size:15px;font-family:Arial, Helvetica, sans-serif;font-weight:normal;font-style:normal;dominant-baseline:text-before-edge;text-decoration:none;">Referenca</text></g></g></g><g><g><g><text x="497.328125" y="252" style="white-space:pre;stroke:none;fill:rgb(0,0,0);fill-opacity:1;font-size:15px;font-family:Arial, Helvetica, sans-serif;font-weight:normal;font-style:normal;dominant-baseline:text-before-edge;text-decoration:none;">Referenca</text></g></g></g><g><g><g><text x="17.84375" y="321" style="white-space:pre;stroke:none;fill:rgb(0,0,0);fill-opacity:1;font-size:15px;font-family:Arial, Helvetica, sans-serif;font-weight:normal;font-style:normal;dominant-baseline:text-before-edge;text-decoration:none;">Izdavačev privatni</text></g></g><g><g><text x="62.863525390625" y="342" style="white-space:pre;stroke:none;fill:rgb(0,0,0);fill-opacity:1;font-size:15px;font-family:Arial, Helvetica, sans-serif;font-weight:normal;font-style:normal;dominant-baseline:text-before-edge;text-decoration:none;">ključ</text></g></g></g><g transform="matrix(0.009599163462400247,-0.999953926969049,0.999953926969049,0.009599163462400247,-203.93090716060112,309.4770403834625)"><g><g><text x="5.484375" y="249.1875" style="white-space:pre;stroke:none;fill:rgb(0,0,0);fill-opacity:1;font-size:15px;font-family:Arial, Helvetica, sans-serif;font-weight:normal;font-style:normal;dominant-baseline:text-before-edge;text-decoration:none;">Digitalni potpis</text></g></g></g><g><g><g><text x="260.09375" y="467" style="white-space:pre;stroke:none;fill:rgb(0,0,0);fill-opacity:1;font-size:15px;font-family:Arial, Helvetica, sans-serif;font-weight:normal;font-style:normal;dominant-baseline:text-before-edge;text-decoration:none;">Korijenski privatni</text></g></g><g><g><text x="303.863525390625" y="488" style="white-space:pre;stroke:none;fill:rgb(0,0,0);fill-opacity:1;font-size:15px;font-family:Arial, Helvetica, sans-serif;font-weight:normal;font-style:normal;dominant-baseline:text-before-edge;text-decoration:none;">ključ</text></g></g></g><g transform="matrix(0.009599163462400247,-0.999953926969049,0.999953926969049,0.009599163462400247,-109.87577774228151,696.4393955670753)"><g><g><text x="247.859375" y="395.1875" style="white-space:pre;stroke:none;fill:rgb(0,0,0);fill-opacity:1;font-size:15px;font-family:Arial, Helvetica, sans-serif;font-weight:normal;font-style:normal;dominant-baseline:text-before-edge;text-decoration:none;">Digitalni potpis</text></g></g></g><g><g><g><text x="446.734375" y="496" style="white-space:pre;stroke:none;fill:rgb(0,0,0);fill-opacity:1;font-size:15px;font-family:Arial, Helvetica, sans-serif;font-weight:normal;font-style:normal;dominant-baseline:text-before-edge;text-decoration:none;">(Samopotpisan)</text></g></g></g></svg>
</svg>
